<?xml version="1.0" encoding="UTF-8" standalone="no"?>
<!-- Created with Inkscape (http://www.inkscape.org/) -->

<svg
   width="800.0px"
   height="800.0px"
   viewBox="0 0 800.0 800.0"
   version="1.1"
   id="SVGRoot"
   sodipodi:docname="ourchive_logo_plain.svg"
   inkscape:version="1.1.2 (0a00cf5339, 2022-02-04)"
   inkscape:export-filename="/home/kate/Nextcloud/Art/WIP/ourchive_logo_plain_inverse.png"
   inkscape:export-xdpi="25.263159"
   inkscape:export-ydpi="25.263159"
   xmlns:inkscape="http://www.inkscape.org/namespaces/inkscape"
   xmlns:sodipodi="http://sodipodi.sourceforge.net/DTD/sodipodi-0.dtd"
   xmlns="http://www.w3.org/2000/svg"
   xmlns:svg="http://www.w3.org/2000/svg">
  <sodipodi:namedview
     id="namedview14"
     pagecolor="#ffffff"
     bordercolor="#666666"
     borderopacity="1.0"
     inkscape:pageshadow="2"
     inkscape:pageopacity="0.0"
     inkscape:pagecheckerboard="0"
     inkscape:document-units="px"
     showgrid="true"
     inkscape:zoom="0.29993115"
     inkscape:cx="-36.675084"
     inkscape:cy="233.3869"
     inkscape:window-width="1803"
     inkscape:window-height="1134"
     inkscape:window-x="0"
     inkscape:window-y="0"
     inkscape:window-maximized="1"
     inkscape:current-layer="layer2">
    <inkscape:grid
       type="xygrid"
       id="grid20" />
  </sodipodi:namedview>
  <defs
     id="defs9" />
  <g
     inkscape:label="Layer 1"
     inkscape:groupmode="layer"
     id="layer1"
     style="display:inline">
    <path
       id="path89"
       style="display:inline;fill:#ff9f1c"
       d="M 400,20 A 380,380 0 0 0 20,400 380,380 0 0 0 400,780 380,380 0 0 0 780,400 380,380 0 0 0 400,20 Z m 0,80 A 100,310 0 0 1 500,410 100,310 0 0 1 400,720 100,310 0 0 1 300,410 100,310 0 0 1 400,100 Z"
       inkscape:export-filename="/home/kate/Desktop/ourchive_big.png"
       inkscape:export-xdpi="25.263159"
       inkscape:export-ydpi="25.263159" />
  </g>
  <g
     inkscape:groupmode="layer"
     id="layer2"
     inkscape:label="chive"
     style="display:inline">
    <path
       style="fill:#ffbf69"
       id="path1056"
       sodipodi:type="arc"
       sodipodi:cx="240"
       sodipodi:cy="260"
       sodipodi:rx="25"
       sodipodi:ry="25"
       sodipodi:start="0"
       sodipodi:end="6.2763087"
       sodipodi:arc-type="slice"
       d="m 265,260 a 25,25 0 0 1 -24.95702,24.99996 25,25 0 0 1 -25.04283,-24.914 25,25 0 0 1 24.87091,-25.08563 25,25 0 0 1 25.12835,24.82776 L 240,260 Z" />
    <path
       style="fill:#45a29e"
       id="path579"
       d="m 277.95382,681.20974 c -7.45208,-28.42024 -16.68919,-56.30485 -25.1859,-84.41949 -12.83947,-47.566 -25.51876,-95.16791 -39.21441,-142.49681 -8.59427,-30.52587 -19.30115,-61.32902 -18.57586,-93.51171 0.28662,-12.71791 4.09674,-34.09523 6.12313,-46.82899 2.59496,-7.04487 5.18992,-14.08974 7.78488,-21.13461 0,0 -0.78484,0.35845 -0.78484,0.35845 v 0 c -4.17849,7.79671 -8.35698,15.59341 -12.53547,23.39012 -3.85679,8.81267 -8.79214,17.22828 -11.57037,26.43803 -2.48885,8.25045 -3.42964,16.93388 -4.10494,25.52506 -2.56882,32.68087 7.72399,64.05926 16.82435,94.95267 13.82388,47.32653 26.62722,94.92505 38.8122,142.69978 7.5069,28.4742 15.89734,56.64145 24.40713,84.81816 0,0 18.0201,-9.79066 18.0201,-9.79066 z" />
    <path
       style="fill:#45a29e"
       id="path565"
       d="m 271.7073,698.68913 c 0.58759,-1.58977 1.48256,-3.09774 1.76276,-4.7693 2.26067,-13.48622 -1.78402,-28.00098 -5.62581,-40.70362 -5.2326,-17.30127 -11.19598,-32.01468 -17.64924,-49.01664 -16.28071,-42.76024 -35.76058,-84.34681 -49.94654,-127.89877 -10.67636,-32.77725 -10.96246,-37.85892 -18.37296,-71.28608 -6.87474,-34.55438 -9.17044,-69.93521 -7.08677,-105.10659 1.74906,-29.52338 7.43152,-58.79874 12.43393,-87.88734 8.6796,-30.30288 3.72393,-15.9652 14.54211,-43.12399 0,0 -0.78307,0.36231 -0.78307,0.36231 v 0 c -11.08162,27.83332 -5.28055,13.01804 -17.33605,44.47209 -3.25684,9.70557 -7.12419,19.22722 -9.77053,29.11671 -5.70898,21.33474 -7.80204,40.19292 -9.22928,62.19501 -2.30967,35.60548 -1.0015,71.22582 5.23884,106.41429 7.37829,33.36514 7.87821,38.78752 17.9927,71.67647 13.51385,43.94258 32.20919,85.95895 47.51205,129.26058 6.6099,19.75652 10.60347,30.23454 15.48335,49.96099 1.4771,5.97101 2.60217,12.02607 3.69734,18.07878 1.57168,8.68627 3.67116,17.52735 -0.16489,25.87488 0,0 17.30206,-7.61978 17.30206,-7.61978 z" />
    <path
       style="fill:#45a29e"
       id="path402"
       d="m 270.0542,695.84115 c -17.76065,-26.18495 -39.6254,-49.24373 -57.95713,-74.9928 -7.11828,-9.99847 -13.59921,-20.43573 -20.39882,-30.65359 -20.14852,-34.04503 -36.04713,-71.04909 -42.61923,-110.32025 -5.3194,-31.78574 -3.17154,-45.67268 -1.84493,-77.09622 0,0 -0.77043,0.38847 -0.77043,0.38847 v 0 c -1.03338,24.53946 -3.00432,54.19971 -0.87375,78.57542 3.65336,41.79777 16.26077,77.51604 36.98278,113.77245 6.35626,10.50742 12.40807,21.20514 19.06877,31.52226 3.057,4.73517 27.89963,39.9343 32.51829,46.43838 7.18316,10.11546 15.01063,19.95541 20.23014,31.30834 0,0 15.66431,-8.94246 15.66431,-8.94246 z" />
    <path
       style="fill:#45a29e"
       id="path571"
       d="m 280.75426,686.98201 c -3.30222,-25.5829 -9.90975,-50.26937 -19.50229,-74.23264 -3.4168,-8.53555 -7.34151,-16.8589 -11.01227,-25.28834 -13.96996,-27.56433 -30.68417,-53.49505 -51.7732,-76.17798 -6.41967,-6.90487 -13.04238,-13.68547 -20.34366,-19.65042 -12.8986,-10.53779 -31.18981,-20.48994 -45.53437,-28.86416 -6.19708,-4.3145 -12.39416,-8.62901 -18.59124,-12.94351 0,0 -0.72757,0.46379 -0.72757,0.46379 v 0 c 6.19675,4.31398 12.3935,8.62797 18.59025,12.94195 18.95034,17.29311 17.82385,15.81322 36.25611,34.53318 6.52607,6.62793 13.26906,13.06694 19.35443,20.10165 20.06164,23.1913 36.57396,49.24443 49.97151,76.7764 3.49851,8.48419 7.32449,16.84062 10.49553,25.45256 8.84278,24.01532 15.5065,49.55186 17.2854,75.12626 0,0 15.53137,-8.23874 15.53137,-8.23874 z" />
  </g>
</svg>
