<?xml version="1.0" encoding="UTF-8" standalone="no"?>
<!-- Created with Inkscape (http://www.inkscape.org/) -->

<svg
   width="400.0px"
   height="400.0px"
   viewBox="0 0 400.0 400.0"
   version="1.1"
   id="SVGRoot"
   sodipodi:docname="ourchive_favicon.svg"
   inkscape:export-filename="/home/kate/Nextcloud/Project.Ourchive/ourchive_favi.png"
   inkscape:export-xdpi="16.168421"
   inkscape:export-ydpi="16.168421"
   inkscape:version="1.1.2 (0a00cf5339, 2022-02-04)"
   xmlns:inkscape="http://www.inkscape.org/namespaces/inkscape"
   xmlns:sodipodi="http://sodipodi.sourceforge.net/DTD/sodipodi-0.dtd"
   xmlns="http://www.w3.org/2000/svg"
   xmlns:svg="http://www.w3.org/2000/svg">
  <sodipodi:namedview
     id="namedview230"
     pagecolor="#ffffff"
     bordercolor="#666666"
     borderopacity="1.0"
     inkscape:pageshadow="2"
     inkscape:pageopacity="0.0"
     inkscape:pagecheckerboard="0"
     inkscape:document-units="px"
     showgrid="false"
     inkscape:zoom="0.59527004"
     inkscape:cx="12.599324"
     inkscape:cy="146.15216"
     inkscape:window-width="1128"
     inkscape:window-height="684"
     inkscape:window-x="0"
     inkscape:window-y="0"
     inkscape:window-maximized="1"
     inkscape:current-layer="layer2"
     showguides="false">
    <inkscape:grid
       type="xygrid"
       id="grid236" />
  </sodipodi:namedview>
  <defs
     id="defs225" />
  <g
     inkscape:label="Layer 1"
     inkscape:groupmode="layer"
     id="layer1">
    <circle
       style="fill:#1f2833"
       id="path381"
       cx="200"
       cy="200"
       r="190" />
  </g>
  <g
     inkscape:groupmode="layer"
     id="layer2"
     inkscape:label="Layer 2"
     style="display:inline">
    <path
       style="fill:#ff9f1c"
       id="path2388"
       d="m 250.45665,65.421901 c 11.61663,13.21059 20.32432,28.742764 28.18664,44.395219 3.26341,6.49687 6.21636,13.14509 9.32454,19.71764 2.95777,7.57805 6.30681,15.0148 8.87329,22.73414 8.4121,25.30147 13.99291,52.78225 11.37969,79.58236 -2.43071,24.92831 -6.35195,29.18393 -16.12624,52.03488 -14.16783,25.67103 -34.28767,47.02031 -53.49492,68.86852 -0.50964,0.82941 11.22007,8.0368 11.72971,7.20739 v 0 c 6.52436,-7.23862 13.27669,-14.27809 19.57309,-21.71584 21.28084,-25.13847 18.02808,-22.19632 35.2514,-50.11352 9.79963,-24.5472 13.98649,-29.80538 16.41691,-56.22584 2.64903,-28.79685 -3.08124,-56.35588 -13.00977,-83.21899 -2.90341,-7.85561 -6.65522,-15.37107 -9.98283,-23.05661 -3.50557,-6.6062 -6.76876,-13.34683 -10.51671,-19.8186 -9.15197,-15.803131 -19.9977,-31.41324 -34.53567,-42.734098 -0.1657,-0.21702 -3.23483,2.126329 -3.06913,2.343349 z"
       inkscape:export-filename="/home/kate/path2404.png"
       inkscape:export-xdpi="8.0820799"
       inkscape:export-ydpi="8.0820799" />
    <path
       style="fill:#ff9f1c"
       id="path2396"
       d="m 157.92845,41.646929 c -0.99214,0.57472 -2.03754,1.066022 -2.97642,1.724161 -5.8219,4.08104 -13.68172,10.753306 -18.27792,15.145881 -5.40768,5.168114 -10.76003,10.417146 -15.69773,16.036011 -5.94176,6.761448 -11.81323,13.635235 -16.90145,21.060314 -6.027308,8.795474 -10.90996,18.322884 -16.364941,27.484324 -4.55398,11.62158 -10.166237,22.88227 -13.661939,34.86476 -14.144945,48.48572 -13.489664,103.25922 16.405196,146.06403 6.901364,9.88169 16.481144,17.59199 24.721714,26.38798 9.71308,5.5829 18.73951,12.58236 29.13924,16.74869 18.7656,7.51785 37.68119,8.77689 57.44432,6.59444 6.33615,-0.69971 12.47905,-2.67392 18.58888,-4.49224 10.37434,-3.08747 10.96942,-1.87084 7.10444,-4.88873 -1.65164,0.5393 -3.30328,1.07859 -4.95492,1.61789 -0.36033,0.2148 2.67749,5.31056 3.03782,5.09575 v 0 c 1.81051,-2.74444 3.62102,-5.48888 5.43154,-8.23333 -0.8044,-1.24308 -1.00049,-3.28587 -2.41319,-3.72923 -2.68917,-0.84399 -5.64194,0.0714 -8.44945,0.32005 -5.61497,0.4974 -11.17017,1.67377 -16.80189,1.91679 -17.65491,0.76183 -33.69229,0.46741 -50.55431,-6.23261 -9.13413,-3.62939 -17.04168,-9.79797 -25.56252,-14.69695 -19.54976,-20.45837 -27.843907,-24.99628 -37.935022,-52.64052 -8.085801,-22.15076 -8.554575,-44.86902 -6.22919,-68.00468 1.229007,-12.22761 3.473702,-24.37618 6.456892,-36.29782 2.842857,-11.36082 7.318274,-22.24956 10.97741,-33.37435 4.67987,-8.96607 8.80792,-18.24252 14.03961,-26.8982 4.50669,-7.456187 9.91652,-14.331577 15.10908,-21.327448 4.36646,-5.882878 9.00498,-11.559119 13.55963,-17.297533 2.43239,-3.064582 10.63857,-13.406454 14.5788,-17.645773 0.71238,-0.766458 1.55433,-1.401372 2.3315,-2.102058 0.22624,-0.151687 -1.91893,-3.351286 -2.14518,-3.199599 z"
       inkscape:export-filename="/home/kate/path2404.png"
       inkscape:export-xdpi="8.0820799"
       inkscape:export-ydpi="8.0820799" />
    <path
       style="fill:#ff9f1c"
       id="path2398"
       d="m 197.4512,319.42248 c -1.08436,-0.21048 -2.21583,-0.25162 -3.25307,-0.63142 -6.05208,-2.21608 -9.04587,-4.77229 -13.92341,-9.76739 -9.93233,-10.17174 -15.46744,-18.35826 -22.11876,-31.46891 -4.28059,-8.43764 -7.608,-17.32591 -11.412,-25.98887 -11.86523,-35.57744 -20.24585,-70.53602 -18.93952,-108.36858 0.7396,-21.41977 4.80311,-39.65757 10.95334,-59.903629 2.01245,-6.624841 4.73896,-13.011389 7.10844,-19.517084 -7.28493,8.614382 8.23063,-12.96713 3.51969,-14.111542 -2.6079,-0.633529 -5.30387,0.824012 -7.95581,1.236018 -0.26918,0.271005 3.56342,4.077788 3.8326,3.806782 v 0 c 0.0825,-2.207538 0.94349,-4.525994 0.24764,-6.622615 -0.24573,-0.740376 -1.40597,0.676325 -2.10896,1.014488 -2.51731,3.317794 -5.03462,6.635588 -7.55193,9.953383 -9.58966,18.874745 -14.45525,26.081874 -19.63834,48.215349 -6.03121,25.75529 -7.42174,48.88023 -4.1063,75.27202 4.16374,33.14449 10.37858,44.19304 21.97414,74.64402 4.72592,8.84811 8.87514,18.02931 14.17777,26.54432 7.5642,12.14663 16.00603,22.45687 27.23994,31.20567 5.54754,4.32035 10.94526,7.29658 17.73733,8.46929 1.39442,0.24076 2.82993,-0.0308 4.2449,-0.0462 0.27826,-0.002 0.25056,-3.93708 -0.0277,-3.93512 z"
       inkscape:export-filename="/home/kate/path2404.png"
       inkscape:export-xdpi="8.0820799"
       inkscape:export-ydpi="8.0820799" />
    <path
       style="fill:#ff9f1c"
       id="path2400"
       d="m 167.90281,175.77754 c 2.79297,23.72733 10.09658,46.63445 18.52035,68.89502 3.63222,9.59847 7.65675,19.04396 11.53374,28.5462 3.99907,9.80144 8.06287,19.57635 12.09431,29.36452 8.79664,22.69914 11.09453,26.28748 16.64048,48.54205 1.04456,4.19157 1.54616,8.50005 2.31924,12.75007 0.0858,0.58409 8.34612,-0.6296 8.2603,-1.2137 v 0 c 0.21344,-4.9902 1.17703,-10.00475 0.64032,-14.9706 -2.10866,-19.51007 -7.73527,-31.89019 -14.2198,-50.59783 -4.10961,-9.62726 -8.12528,-19.29516 -12.32883,-28.88177 -17.95166,-40.94054 -6.78975,-13.62726 -23.07705,-52.40885 -11.89591,-28.32527 -4.61209,-11.33746 -13.5063,-33.83626 -0.91634,-2.31796 -1.92007,-4.60042 -2.8801,-6.90063 -0.0503,-0.28261 -4.04699,0.42917 -3.99666,0.71178 z"
       inkscape:export-filename="/home/kate/path2404.png"
       inkscape:export-xdpi="8.0820799"
       inkscape:export-ydpi="8.0820799" />
    <path
       style="fill:#ff9f1c"
       id="path2402"
       d="m 225.31353,301.2257 c 0.90428,-28.10466 -2.77961,-56.23191 -9.61963,-83.47712 -2.92609,-11.65522 -6.69793,-23.08164 -10.04689,-34.62245 -10.06155,-29.62845 -22.34488,-58.15137 -36.51406,-86.021145 -3.07174,-6.041892 -6.28497,-12.01234 -9.57385,-17.938834 -8.31041,-14.97519 -4.19322,-5.669136 -7.94918,-14.631639 3.26422,2.113365 1.11431,0.859597 6.71045,3.273628 0.39417,0.02556 0.75566,-5.548759 0.3615,-5.57432 v 0 c -9.06742,-1.149303 -5.02648,-2.123274 -12.26197,2.268229 -0.18768,2.018611 -0.89948,4.056627 -0.56304,6.055832 1.24369,7.390289 9.02664,25.298817 10.97752,30.146299 11.53409,28.65956 23.00968,57.34934 33.11811,86.5541 8.02849,22.74462 14.45992,39.4198 20.64724,62.4113 4.60873,17.12563 6.81305,34.77322 10.96265,51.99097 0.0308,0.26524 3.7819,-0.1696 3.75115,-0.43485 z"
       inkscape:export-filename="/home/kate/path2404.png"
       inkscape:export-xdpi="8.0820799"
       inkscape:export-ydpi="8.0820799" />
    <path
       style="fill:#ff9f1c"
       id="path2404"
       d="m 187.21943,81.286661 c 6.11747,3.297685 11.36094,8.124937 16.59165,12.603447 3.79912,3.252791 7.59818,6.507482 11.30856,9.861152 5.82255,5.2628 11.79651,10.3776 17.28732,15.98564 7.02161,7.17153 13.47584,14.87741 20.21376,22.31611 18.98043,27.50217 21.63977,27.31272 32.51145,59.91285 3.21514,9.64101 4.75979,19.76079 7.13968,29.64119 0.17846,1.02587 14.68656,-1.49794 14.5081,-2.52382 v 0 c -2.02735,-10.74822 -2.76393,-21.82235 -6.08204,-32.24465 -10.09392,-31.7054 -16.78114,-36.50875 -35.84467,-62.42389 -23.15059,-22.10433 -18.74118,-19.50661 -42.25626,-36.591607 -5.25056,-3.814819 -10.61953,-7.469879 -16.07198,-10.990102 -4.12744,-2.66477 -11.02352,-6.805812 -16.18373,-8.612447 -1.14684,-0.401522 -2.38753,-0.453393 -3.5813,-0.680089 -0.2649,0.03249 0.19456,3.778705 0.45946,3.746216 z"
       inkscape:export-filename="/home/kate/path2404.png"
       inkscape:export-xdpi="8.0820799"
       inkscape:export-ydpi="8.0820799" />
  </g>
  <g
     inkscape:groupmode="layer"
     id="layer3"
     inkscape:label="Layer 3"
     style="display:none">
    <circle
       id="path1807"
       style="fill:#45a29e;stroke:#000000"
       cx="-52.645161"
       cy="100.46917"
       r="0.86626351" />
    <circle
       id="path1809"
       style="fill:#45a29e;stroke:#000000"
       cx="-52.645161"
       cy="100.46917"
       r="0.86626351" />
    <path
       style="display:inline;fill:#ffbf69"
       id="path1056"
       sodipodi:type="arc"
       sodipodi:cx="190.11147"
       sodipodi:cy="50.040764"
       sodipodi:rx="18.197924"
       sodipodi:ry="19.138624"
       sodipodi:start="0"
       sodipodi:end="6.2763087"
       sodipodi:arc-type="slice"
       d="m 208.30939,50.040764 a 18.197924,19.138624 0 0 1 -18.16664,19.138596 18.197924,19.138624 0 0 1 -18.2291,-19.072792 18.197924,19.138624 0 0 1 18.10396,-19.204174 18.197924,19.138624 0 0 1 18.29135,19.006762 l -18.19749,0.131608 z" />
    <path
       style="display:inline;fill:#45a29e;stroke-width:0.619123"
       id="path565"
       d="m 197.65384,331.56149 c 0.42788,-0.83718 1.0792,-1.63122 1.2832,-2.51149 1.64556,-7.10169 -1.29867,-14.74497 -4.09519,-21.43407 -3.80889,-9.11068 -8.14966,-16.85858 -12.84716,-25.81166 -11.85094,-22.51708 -26.03067,-44.41615 -36.35689,-67.35013 -7.77149,-17.26016 -7.97981,-19.93611 -13.37402,-37.5385 -5.00419,-18.19596 -6.67534,-36.82714 -5.15857,-55.34802 1.27317,-15.54671 5.40951,-30.962775 9.05088,-46.28055 6.318,-15.957167 2.71068,-8.407119 10.58546,-22.708612 0,0 -0.56964,0.190724 -0.56964,0.190724 v 0 c -8.06651,14.656741 -3.84382,6.855125 -12.61922,23.418543 -2.37071,5.110844 -5.1858,10.124824 -7.11212,15.332528 -4.1557,11.234647 -5.67929,21.165187 -6.71822,32.751207 -1.68126,18.74949 -0.72869,37.5068 3.81348,56.03669 5.37079,17.56969 5.7347,20.42511 13.09715,37.74405 9.83698,23.1397 23.44568,45.26508 34.58487,68.06724 4.81143,10.40359 7.71842,15.92122 11.27059,26.30893 1.07522,3.14431 1.89416,6.33284 2.69131,9.52013 1.14412,4.57406 2.6723,9.22967 -0.12015,13.62539 0,0 12.59441,-4.01246 12.59441,-4.01246 z" />
    <path
       style="display:inline;fill:#45a29e;stroke-width:0.619123"
       id="path565-6"
       d="m 198.11673,333.51829 c 0.54992,-0.76259 1.31415,-1.44864 1.64931,-2.28778 2.70375,-6.76991 0.95297,-14.77135 -0.79655,-21.80724 -2.38285,-9.58301 -5.49814,-17.89969 -8.78322,-27.46172 -8.29828,-24.05415 -18.99214,-47.85069 -25.7201,-72.08564 -5.06343,-18.23927 -4.86344,-20.91586 -7.52519,-39.13279 -2.18621,-18.74448 -1.01192,-37.41356 3.29666,-55.49006 3.61666,-15.17369 10.04354,-29.78394 15.96627,-44.37212 8.66538,-14.814171 3.95456,-7.898668 13.90756,-20.840178 0,0 -0.59198,0.102111 -0.59198,0.102111 v 0 c -10.19639,13.263564 -4.83917,6.192747 -16.02547,21.233397 -3.11852,4.6921 -6.66159,9.22105 -9.35556,14.0763 -5.81175,10.47428 -8.82404,20.05881 -11.60839,31.35317 -4.50584,18.27751 -6.40952,36.96226 -4.73064,55.96672 2.64356,18.18106 2.57013,21.05864 7.22034,39.29396 6.21318,24.36408 16.30829,48.2977 23.85981,72.52567 3.17767,11.01303 5.21407,16.90777 7.14947,27.71409 0.58583,3.27103 0.91163,6.54688 1.21609,9.81821 0.43706,4.69468 1.24137,9.52822 -2.18554,13.4495 0,0 13.05731,-2.05563 13.05731,-2.05563 z" />
    <path
       style="display:inline;fill:#45a29e;stroke-width:0.619123"
       id="path402"
       d="m 196.45059,330.06178 c -12.92833,-13.78873 -28.84403,-25.93123 -42.18797,-39.4904 -5.18157,-5.26511 -9.89912,-10.76128 -14.84869,-16.14189 -14.66647,-17.92775 -26.23933,-37.41369 -31.02327,-58.0935 -3.87209,-16.738 -2.30856,-24.05075 -1.34294,-40.59803 0,0 -0.56099,0.20448 -0.56099,0.20448 v 0 c -0.75203,12.92228 -2.18685,28.54102 -0.6362,41.377 2.65933,22.01025 11.8365,40.81915 26.92039,59.91138 4.62689,5.53312 9.03205,11.16643 13.88047,16.59932 2.22523,2.49348 20.30868,21.02892 23.67068,24.45395 5.22868,5.32664 10.92647,10.50827 14.72586,16.48663 0,0 11.40232,-4.709 11.40232,-4.709 z" />
    <path
       style="display:inline;fill:#45a29e;stroke-width:71.4924"
       id="path571"
       d="M 204.23928,322.35661 C -18642.113,299.44551 -56352.381,277.33725 -111098.8,255.87663 c -19500.95,-7.6442 -41899.97,-15.09824 -62849.29,-22.64735 -79729.58,-24.68551 -175120.87,-47.90811 -295480.34,-68.22218 -36638.79,-6.18372 -74435.85,-12.25619 -116105.4,-17.59816 -73615.11,-9.43721 -178006.62,-18.35004 -259874.44,-25.84961 -35368.05,-3.86392 -70735.41,-7.72787 -106103.46,-11.59171 0,0 -4154.49,0.41582 -4154.49,0.41582 v 0 c 35366.01,3.86343 70732.03,7.72692 106098.04,11.59033 108153.59,15.48705 101724.65,14.16176 206921.3,30.92667 37245.32,5.93571 75728.9,11.70222 110459.24,18.00229 114496.46,20.76924 208735.59,44.10148 285197.81,68.75806 19966.6,7.59815 41802.44,15.08184 59900.5,22.79433 50467.24,21.50728 88498.736,44.37682 98651.193,67.28023 0,0 88640.33776,-7.3782 88640.33776,-7.3782 z" />
  </g>
</svg>
